<svg width="31" height="31" viewBox="0 0 31 31" fill="none" xmlns="http://www.w3.org/2000/svg">
<g clip-path="url(#clip0_1151_2798)">
<path d="M21.6115 26.4565V23.5214H5.60896H0.301514V26.4565C0.301514 28.9494 2.31185 31 4.84498 31H25.8735C23.5012 30.8392 21.6115 28.9092 21.6115 26.4565Z" fill="#0F90D9"/>
<path d="M26.5168 3.73932L22.3352 0L18.1536 3.73932L13.972 0L9.79042 3.73932L5.60889 0.040173V23.4812V23.5214H21.6115V26.4565C21.6115 28.9092 23.5013 30.8392 25.8735 31C25.954 31 26.0746 31 26.155 31C27.4014 31 28.5674 30.4773 29.3716 29.6731C30.2159 28.8288 30.6985 27.703 30.6985 26.4565V0.040173L26.5168 3.73932Z" fill="#FFD064"/>
<path d="M11.64 12.786H19.0784C19.762 12.786 20.2846 12.2633 20.2846 11.5798C20.2846 10.8963 19.7619 10.3736 19.0784 10.3736H11.64C10.9565 10.3736 10.4338 10.8963 10.4338 11.5798C10.4338 12.2633 10.9565 12.786 11.64 12.786Z" fill="#FF9800"/>
<path d="M24.7075 16.0026H11.64C10.9565 16.0026 10.4338 16.5253 10.4338 17.2088C10.4338 17.8923 10.9565 18.415 11.64 18.415H24.7075C25.391 18.415 25.9137 17.8923 25.9137 17.2088C25.9137 16.5253 25.391 16.0026 24.7075 16.0026Z" fill="#FF9800"/>
</g>
<defs>
<clipPath id="clip0_1151_2798">
<rect width="31" height="31" fill="white"/>
</clipPath>
</defs>
</svg>
