<svg width="150" height="24" viewBox="0 0 150 24" fill="none" xmlns="http://www.w3.org/2000/svg">
<g clip-path="url(#clip0_1151_479)">
<path fill-rule="evenodd" clip-rule="evenodd" d="M19.5629 23H13.2362L6.29143 14.4707L5.3097 23H0.00109863L2.2918 2.40571L0.982827 0H7.89128L7.055 7.58162L7.30952 7.90967C8.36397 4.08241 10.8365 -3.90016 15.5269 2.95246C18.2176 6.92552 19.6357 5.17591 21.9991 3.24406C16.5087 18.0063 15.2361 3.38986 8.61849 9.51347L19.5629 23Z" fill="white"/>
</g>
<path d="M36.4268 15.502C36.4268 17.0273 36.1439 18.3773 35.5781 19.5518C35.0124 20.7262 34.2067 21.6322 33.1611 22.2695C32.1227 22.8997 30.9375 23.2148 29.6055 23.2148C28.2734 23.2148 27.0918 22.9105 26.0605 22.3018C25.0293 21.6859 24.2236 20.8086 23.6436 19.6699C23.0706 18.5312 22.7699 17.2243 22.7412 15.749V14.8682C22.7412 13.3356 23.0205 11.9857 23.5791 10.8184C24.1449 9.64388 24.9505 8.73796 25.9961 8.10059C27.0488 7.46322 28.2448 7.14453 29.584 7.14453C30.9089 7.14453 32.0905 7.45964 33.1289 8.08984C34.1673 8.72005 34.973 9.61882 35.5459 10.7861C36.126 11.9463 36.4196 13.2783 36.4268 14.7822V15.502ZM32.5918 14.8467C32.5918 13.2926 32.3304 12.1146 31.8076 11.3125C31.292 10.5033 30.5508 10.0986 29.584 10.0986C27.6934 10.0986 26.6943 11.5166 26.5869 14.3525L26.5762 15.502C26.5762 17.0345 26.8304 18.2126 27.3389 19.0361C27.8473 19.8597 28.6029 20.2715 29.6055 20.2715C30.5579 20.2715 31.292 19.8669 31.8076 19.0576C32.3232 18.2484 32.5846 17.0846 32.5918 15.5664V14.8467ZM38.8111 23V7.35938H44.4293C46.4416 7.35938 47.9706 7.72819 49.0162 8.46582C50.0689 9.20345 50.5953 10.2741 50.5953 11.6777C50.5953 12.487 50.4091 13.1781 50.0367 13.751C49.6643 14.3239 49.1164 14.7464 48.3931 15.0186C49.2095 15.2334 49.8362 15.6344 50.273 16.2217C50.7099 16.8089 50.9283 17.5251 50.9283 18.3701C50.9283 19.9027 50.4413 21.0557 49.4673 21.8291C48.5005 22.5954 47.0647 22.9857 45.1597 23H38.8111ZM42.5816 16.3506V20.0996H45.0523C45.7326 20.0996 46.2554 19.9456 46.6207 19.6377C46.9859 19.3226 47.1685 18.8822 47.1685 18.3164C47.1685 17.013 46.5204 16.3577 45.2242 16.3506H42.5816ZM42.5816 13.8799H44.5474C45.371 13.8727 45.9582 13.7223 46.3091 13.4287C46.6601 13.1351 46.8355 12.7018 46.8355 12.1289C46.8355 11.4701 46.6457 10.9974 46.2662 10.7109C45.8866 10.4173 45.2743 10.2705 44.4293 10.2705H42.5816V13.8799ZM63.1525 16.3721H57.2228V20.0996H64.2267V23H53.4523V7.35938H64.2482V10.2705H57.2228V13.5684H63.1525V16.3721ZM72.0143 17.4785H69.9733V23H66.2028V7.35938H72.3581C74.2129 7.35938 75.6631 7.77116 76.7087 8.59473C77.7542 9.41829 78.277 10.582 78.277 12.0859C78.277 13.1745 78.055 14.0768 77.611 14.793C77.1742 15.5091 76.4867 16.0892 75.5485 16.5332L78.8141 22.8389V23H74.7751L72.0143 17.4785ZM69.9733 14.5674H72.3581C73.0742 14.5674 73.6113 14.3812 73.9694 14.0088C74.3346 13.6292 74.5173 13.1029 74.5173 12.4297C74.5173 11.7565 74.3346 11.2301 73.9694 10.8506C73.6042 10.4639 73.0671 10.2705 72.3581 10.2705H69.9733V14.5674ZM91.865 7.35938L95.3563 18.2412L98.8367 7.35938H103.8V23H100.018V19.3477L100.384 11.8711L96.6023 23H94.1102L90.3182 11.8604L90.6834 19.3477V23H86.9129V7.35938H91.865ZM115.723 20.0781H110.556L109.654 23H105.625L111.362 7.35938H114.907L120.686 23H116.636L115.723 20.0781ZM111.458 17.167H114.821L113.134 11.7422L111.458 17.167ZM128.087 17.4785H126.046V23H122.275V7.35938H128.431C130.285 7.35938 131.736 7.77116 132.781 8.59473C133.827 9.41829 134.35 10.582 134.35 12.0859C134.35 13.1745 134.128 14.0768 133.684 14.793C133.247 15.5091 132.559 16.0892 131.621 16.5332L134.887 22.8389V23H130.848L128.087 17.4785ZM126.046 14.5674H128.431C129.147 14.5674 129.684 14.3812 130.042 14.0088C130.407 13.6292 130.59 13.1029 130.59 12.4297C130.59 11.7565 130.407 11.2301 130.042 10.8506C129.677 10.4639 129.14 10.2705 128.431 10.2705H126.046V14.5674ZM148.808 10.2705H144.114V23H140.343V10.2705H135.735V7.35938H148.808V10.2705Z" fill="white"/>
<defs>
<clipPath id="clip0_1151_479">
<rect width="22" height="23" fill="white"/>
</clipPath>
</defs>
</svg>
