<svg width="26" height="24" viewBox="0 0 26 24" fill="none" xmlns="http://www.w3.org/2000/svg">
<g clip-path="url(#clip0_1151_567)">
<path d="M17.6211 11.3438H0.761719C0.340691 11.3438 0 11.6582 0 12.0469V21.8906C0 23.0538 1.02507 24 2.28516 24H16.0977C17.3577 24 18.3828 23.0538 18.3828 21.8906V12.0469C18.3828 11.6582 18.0421 11.3438 17.6211 11.3438ZM13.7109 15.5625C13.7109 17.8889 11.6608 19.7813 9.14062 19.7813C6.6204 19.7813 4.57031 17.8889 4.57031 15.5625V14.8594C4.57031 14.4707 4.911 14.1563 5.33203 14.1563C5.75306 14.1563 6.09375 14.4707 6.09375 14.8594V15.5625C6.09375 17.1136 7.46022 18.375 9.14062 18.375C10.821 18.375 12.1875 17.1136 12.1875 15.5625V14.8594C12.1875 14.4707 12.5282 14.1563 12.9492 14.1563C13.3702 14.1563 13.7109 14.4707 13.7109 14.8594V15.5625Z" fill="#A7A7A7"/>
<path d="M25.2383 5.71875H21.3281V4.21875C21.3281 1.89239 19.278 0 16.7578 0C14.2376 0 12.1875 1.89239 12.1875 4.21875V5.71875H8.27734C7.85632 5.71875 7.51562 6.03323 7.51562 6.42188V9.9375H17.6211C18.8812 9.9375 19.9062 10.8837 19.9062 12.0469V21.8906C19.9062 22.6851 19.6084 23.4106 19.1251 24H23.7148C24.9749 24 26 23.0538 26 21.8906V6.42188C26 6.03323 25.6593 5.71875 25.2383 5.71875ZM19.8047 5.71875H13.7109V4.21875C13.7109 2.66761 15.0774 1.40625 16.7578 1.40625C18.4382 1.40625 19.8047 2.66761 19.8047 4.21875V5.71875Z" fill="#A7A7A7"/>
</g>
<defs>
<clipPath id="clip0_1151_567">
<rect width="26" height="24" fill="white"/>
</clipPath>
</defs>
</svg>
