<svg width="27" height="26" viewBox="0 0 27 26" fill="none" xmlns="http://www.w3.org/2000/svg">
<g clip-path="url(#clip0_1151_526)">
<path d="M22.5884 13.7817H20.5918C20.7953 14.3389 20.9065 14.9402 20.9065 15.5669V23.1128C20.9065 23.3741 20.861 23.6249 20.7783 23.8581H24.079C25.312 23.8581 26.3151 22.855 26.3151 21.6221V17.5085C26.3152 15.4536 24.6433 13.7817 22.5884 13.7817Z" fill="#A7A7A7"/>
<path d="M5.90708 15.567C5.90708 14.9402 6.01826 14.339 6.22177 13.7818H4.22521C2.17025 13.7818 0.498413 15.4536 0.498413 17.5086V21.6222C0.498413 22.8551 1.50149 23.8583 2.73449 23.8583H6.0353C5.95256 23.6249 5.90708 23.3741 5.90708 23.1128V15.567Z" fill="#A7A7A7"/>
<path d="M15.689 11.8401H11.1246C9.06966 11.8401 7.39783 13.512 7.39783 15.5669V23.1128C7.39783 23.5244 7.73153 23.8582 8.14319 23.8582H18.6705C19.0821 23.8582 19.4158 23.5245 19.4158 23.1128V15.5669C19.4158 13.512 17.744 11.8401 15.689 11.8401Z" fill="#A7A7A7"/>
<path d="M13.4069 1.95844C10.9355 1.95844 8.92493 3.96902 8.92493 6.44042C8.92493 8.11674 9.85015 9.58079 11.2165 10.3494C11.8646 10.714 12.6118 10.9224 13.4069 10.9224C14.2019 10.9224 14.9491 10.714 15.5972 10.3494C16.9636 9.58079 17.8888 8.11669 17.8888 6.44042C17.8888 3.96907 15.8782 1.95844 13.4069 1.95844Z" fill="#A7A7A7"/>
<path d="M5.53659 6.13599C3.68832 6.13599 2.18469 7.63961 2.18469 9.48788C2.18469 11.3361 3.68832 12.8398 5.53659 12.8398C6.00542 12.8398 6.45187 12.7427 6.85743 12.5681C7.55862 12.2662 8.13677 11.7318 8.49452 11.0625C8.74563 10.5927 8.88848 10.0567 8.88848 9.48788C8.88848 7.63966 7.38486 6.13599 5.53659 6.13599Z" fill="#A7A7A7"/>
<path d="M21.2769 6.13599C19.4287 6.13599 17.925 7.63961 17.925 9.48788C17.925 10.0568 18.0679 10.5927 18.319 11.0625C18.6768 11.7319 19.2549 12.2663 19.9561 12.5681C20.3617 12.7427 20.8081 12.8398 21.2769 12.8398C23.1252 12.8398 24.6288 11.3361 24.6288 9.48788C24.6288 7.63961 23.1252 6.13599 21.2769 6.13599Z" fill="#A7A7A7"/>
</g>
<defs>
<clipPath id="clip0_1151_526">
<rect width="25.8167" height="25.8167" fill="white" transform="translate(0.498413)"/>
</clipPath>
</defs>
</svg>
