<svg width="27" height="26" viewBox="0 0 27 26" fill="none" xmlns="http://www.w3.org/2000/svg">
<path d="M25.8245 12.6061C26.2925 12.0914 26.2473 11.3025 25.7236 10.8445L14.1858 0.748839C13.6621 0.290863 12.8224 0.300457 12.3098 0.770467L0.732701 11.3828C0.220024 11.8528 0.194861 12.6406 0.67699 13.1418L0.967243 13.4441C1.44878 13.9452 2.22714 14.005 2.70464 13.5771L3.56985 12.8023V24.1458C3.56985 24.8418 4.13377 25.4052 4.82924 25.4052H9.34201C10.0375 25.4052 10.6014 24.8418 10.6014 24.1458V16.2099H16.3575V24.1458C16.3475 24.8413 16.8451 25.4047 17.5406 25.4047H22.323C23.0184 25.4047 23.5823 24.8413 23.5823 24.1453V12.962C23.5823 12.962 23.8214 13.1714 24.1162 13.4305C24.4104 13.6891 25.0286 13.4818 25.4966 12.9666L25.8245 12.6061Z" fill="#2196F3"/>
</svg>
