<svg width="27" height="26" viewBox="0 0 27 26" fill="none" xmlns="http://www.w3.org/2000/svg">
<g clip-path="url(#clip0_1151_520)">
<path d="M22.9218 0.663275C22.5293 0.48246 22.0669 0.552821 21.7459 0.842077L20.0522 2.34175C20.0061 2.38276 19.9366 2.38252 19.8907 2.34127L17.5862 0.280102C17.1694 -0.0933675 16.5384 -0.0933675 16.1216 0.280102L13.8192 2.33937C13.7729 2.38075 13.7029 2.38075 13.6565 2.33937L11.3538 0.280102C10.937 -0.0933065 10.306 -0.0933065 9.88925 0.280102L7.58441 2.34127C7.53828 2.38252 7.46859 2.3827 7.42221 2.34169L5.72695 0.842077C5.2772 0.442123 4.58835 0.48246 4.1884 0.93221C4.00905 1.1339 3.91092 1.39496 3.913 1.66481V24.152C3.90897 24.7548 4.39436 25.2467 4.99716 25.2507C5.26719 25.2525 5.52825 25.1542 5.73 24.9747L7.42374 23.475C7.46981 23.434 7.53932 23.4343 7.58515 23.4755L9.88968 25.5367C10.3065 25.9101 10.9375 25.9101 11.3543 25.5367L13.657 23.4774C13.7033 23.436 13.7733 23.436 13.8196 23.4774L16.1223 25.5366C16.5392 25.9099 17.1701 25.9099 17.5869 25.5366L19.8918 23.4755C19.938 23.4342 20.0077 23.434 20.054 23.475L21.7493 24.9746C22.1992 25.3744 22.888 25.3338 23.2878 24.8838C23.4668 24.6823 23.5648 24.4216 23.5629 24.152V1.66481C23.5686 1.23282 23.3165 0.838904 22.9218 0.663275ZM7.95325 8.75873H14.0304C14.3 8.75873 14.5186 8.97731 14.5186 9.24692C14.5186 9.51653 14.3 9.73512 14.0304 9.73512H7.95325C7.68364 9.73512 7.46505 9.51653 7.46505 9.24692C7.46505 8.97731 7.68364 8.75873 7.95325 8.75873ZM19.5226 17.0581H7.95325C7.68364 17.0581 7.46505 16.8395 7.46505 16.5699C7.46505 16.3003 7.68364 16.0817 7.95325 16.0817H19.5226C19.7922 16.0817 20.0108 16.3003 20.0108 16.5699C20.0108 16.8395 19.7922 17.0581 19.5226 17.0581ZM19.5226 13.3966H7.95325C7.68364 13.3966 7.46505 13.178 7.46505 12.9084C7.46505 12.6388 7.68364 12.4202 7.95325 12.4202H19.5226C19.7922 12.4202 20.0108 12.6388 20.0108 12.9084C20.0108 13.178 19.7922 13.3966 19.5226 13.3966Z" fill="#A7A7A7"/>
</g>
<defs>
<clipPath id="clip0_1151_520">
<rect width="25.8167" height="25.8167" fill="white" transform="translate(0.82959)"/>
</clipPath>
</defs>
</svg>
