<svg width="31" height="31" viewBox="0 0 31 31" fill="none" xmlns="http://www.w3.org/2000/svg">
<path d="M2.42188 24.7031C2.42188 17.2128 7.19297 12.1094 13.0781 12.1094C18.9633 12.1094 23.7344 17.2128 23.7344 24.7031C23.7344 24.7031 18.8906 27.6094 13.0781 27.6094C7.75 27.6094 2.42188 24.7031 2.42188 24.7031Z" fill="#0F90D9"/>
<path d="M13.0781 12.1094C16.0208 12.1094 18.4062 9.72389 18.4062 6.78125C18.4062 3.83861 16.0208 1.45312 13.0781 1.45312C10.1355 1.45312 7.75 3.83861 7.75 6.78125C7.75 9.72389 10.1355 12.1094 13.0781 12.1094Z" fill="#FFD064"/>
<path d="M22.2812 29.5469C25.7589 29.5469 28.5781 26.7277 28.5781 23.25C28.5781 19.7723 25.7589 16.9531 22.2812 16.9531C18.8036 16.9531 15.9844 19.7723 15.9844 23.25C15.9844 26.7277 18.8036 29.5469 22.2812 29.5469Z" fill="#FF9800"/>
<path d="M25.6719 23.7344H22.2813C22.2103 23.7344 22.1401 23.7188 22.0758 23.6886C22.0115 23.6585 21.9546 23.6146 21.9092 23.5601L19.4873 20.6538C19.4462 20.605 19.4151 20.5485 19.3958 20.4877C19.3766 20.4268 19.3696 20.3627 19.3752 20.2991C19.3808 20.2355 19.3989 20.1737 19.4285 20.1171C19.4581 20.0605 19.4986 20.0104 19.5476 19.9695C19.5966 19.9287 19.6533 19.8979 19.7143 19.879C19.7752 19.8601 19.8394 19.8534 19.9029 19.8594C19.9665 19.8654 20.0282 19.8838 20.0846 19.9137C20.141 19.9436 20.191 19.9844 20.2315 20.0337L22.5082 22.7656H25.6719C25.8004 22.7656 25.9236 22.8167 26.0144 22.9075C26.1053 22.9983 26.1563 23.1215 26.1563 23.25C26.1563 23.3785 26.1053 23.5017 26.0144 23.5925C25.9236 23.6833 25.8004 23.7344 25.6719 23.7344V23.7344Z" fill="#F7DC4D"/>
</svg>
