<svg width="32" height="32" viewBox="0 0 32 32" fill="none" xmlns="http://www.w3.org/2000/svg">
<path d="M13.5189 15.9187C6.9804 15.9187 1.5811 20.7958 0.760413 27.1107C0.705413 27.5341 0.835538 27.9606 1.11754 28.2813C1.39954 28.6019 1.80597 28.785 2.23297 28.785H24.8047C25.2314 28.785 25.6372 28.6011 25.9189 28.2808C26.2007 27.9604 26.3322 27.5337 26.2773 27.1106C25.4567 20.7958 20.0574 15.9187 13.5189 15.9187Z" fill="#005A95"/>
<path d="M13.5188 15.9187C6.98034 15.9187 1.5811 20.7958 0.760413 27.1107C0.705413 27.5341 0.835538 27.9606 1.11754 28.2813C1.39954 28.6019 1.80597 28.785 2.23297 28.785H13.5188V15.9187Z" fill="#31AAEF"/>
<path d="M19.5997 17.4461C17.7887 16.4728 15.7188 15.9187 13.5188 15.9187C11.3189 15.9187 9.24905 16.4728 7.43799 17.4461C8.86661 19.5691 11.0589 20.9295 13.5188 20.9295C15.9788 20.9295 18.1711 19.569 19.5997 17.4461Z" fill="#003C61"/>
<path d="M13.5187 18.5953C17.8237 18.5953 21.3136 14.4326 21.3136 9.29767C21.3136 4.16271 17.8237 0 13.5187 0C9.21375 0 5.72388 4.16271 5.72388 9.29767C5.72388 14.4326 9.21375 18.5953 13.5187 18.5953Z" fill="#FFDBAC"/>
<path d="M13.5189 0C9.21374 0 5.72388 4.16268 5.72388 9.29761C5.72388 14.4325 9.21375 18.5952 13.5188 18.5952V0H13.5189Z" fill="#FFEED9"/>
<path d="M25.212 31.9998C28.5478 31.9998 31.252 29.2956 31.252 25.9598C31.252 22.6241 28.5478 19.9199 25.212 19.9199C21.8763 19.9199 19.1721 22.6241 19.1721 25.9598C19.1721 29.2956 21.8763 31.9998 25.212 31.9998Z" fill="#FF9800"/>
<path d="M19.1719 25.9598C19.1719 29.2958 21.8761 32 25.2121 32V19.9196C21.8761 19.9196 19.1719 22.6239 19.1719 25.9598Z" fill="#F7DC4D"/>
<path d="M27.6088 24.9152H26.2565V23.563C26.2565 22.9861 25.7888 22.5183 25.2119 22.5183C24.635 22.5183 24.1673 22.986 24.1673 23.563V24.9152H22.8149C22.238 24.9152 21.7703 25.3829 21.7703 25.9598C21.7703 26.5367 22.238 27.0044 22.8149 27.0044H24.1673V28.3567C24.1673 28.9336 24.6349 29.4013 25.2119 29.4013C25.7888 29.4013 26.2565 28.9336 26.2565 28.3567V27.0044H27.6088C28.1856 27.0044 28.6534 26.5368 28.6534 25.9598C28.6534 25.383 28.1858 24.9152 27.6088 24.9152Z" fill="#003C61"/>
<path d="M25.2119 22.5183C24.635 22.5183 24.1673 22.986 24.1673 23.563V24.9152H22.8149C22.238 24.9152 21.7703 25.3829 21.7703 25.9598C21.7703 26.5367 22.238 27.0044 22.8149 27.0044H24.1673V28.3567C24.1673 28.9336 24.6349 29.4013 25.2119 29.4013V22.5183Z" fill="#005A95"/>
</svg>
