<svg width="31" height="31" viewBox="0 0 31 31" fill="none" xmlns="http://www.w3.org/2000/svg">
<g clip-path="url(#clip0_1385_104)">
<path d="M23.6345 20.041H25.4509V30.0204C25.4509 30.5218 25.0439 30.9286 24.5427 30.9286C24.0413 30.9286 23.6345 30.5218 23.6345 30.0204V20.041Z" fill="#464646"/>
<path d="M16.4174 12.6392C16.417 5.91423 12.1836 1.44842 8.53167 0.0584469C8.32354 -0.0207844 8.09389 -0.0207844 7.88576 0.0584469C4.30782 1.42028 0 5.8175 0 12.6404V14.8846C0 16.7207 1.37484 18.2145 3.06495 18.2145H7.32972V13.6737C7.32972 13.1723 7.73676 12.7655 8.23792 12.7655C8.74004 12.7655 9.14613 13.1723 9.14613 13.6737V18.2145H13.3558C15.0672 18.2145 16.4233 16.7041 16.4207 14.8792L16.4174 12.6392Z" fill="#464646"/>
<path d="M8.23805 20.0311C6.73596 20.0311 5.51367 21.2534 5.51367 22.7554V28.2039C5.51367 29.7063 6.73596 30.9283 8.23805 30.9283C9.74013 30.9283 10.9624 29.7063 10.9624 28.2039V22.7554C10.9624 21.2534 9.74013 20.0311 8.23805 20.0311V20.0311Z" fill="#464646"/>
<path d="M30.9395 19.7359V30.0918C30.9395 30.5932 30.5327 31 30.0313 31C29.5299 31 29.1231 30.5932 29.1231 30.0918V19.7359C29.1231 18.901 28.563 18.2222 27.8746 18.2222C27.6023 18.2222 21.9396 18.2222 21.2761 18.2222C20.5825 18.2222 20.0267 18.9159 20.0278 19.7383L20.0314 30.0918C20.0314 30.5932 19.6246 31 19.1232 31C18.6218 31 18.215 30.5937 18.215 30.0918L18.2114 19.7402C18.2091 17.9233 19.5588 16.4058 21.2761 16.4058H23.6696V12.5569C22.6131 12.182 21.8539 11.1728 21.8539 9.98905V2.72461C21.8539 1.22253 23.0758 0 24.5778 0C26.0799 0 27.3024 1.22253 27.3024 2.72461V9.98905C27.3024 11.1728 26.5432 12.182 25.486 12.5569V16.4058H27.8746C29.5644 16.4058 30.9395 17.8994 30.9395 19.7359Z" fill="#464646"/>
</g>
<defs>
<clipPath id="clip0_1385_104">
<rect width="31" height="31" fill="white"/>
</clipPath>
</defs>
</svg>
