<svg width="24" height="34" viewBox="0 0 24 34" fill="none" xmlns="http://www.w3.org/2000/svg">
<path d="M7.28656 3.42942H5.739V5.97855H11.1024V3.42942H9.54997V1.99219H12.1468C13.0947 1.99219 13.9858 2.31711 14.6561 2.90693L16.2216 4.28486L17.822 2.87619L16.2565 1.49819C15.1588 0.532113 13.6992 0 12.1468 0H5.18311V1.99219H7.28656V3.42942Z" fill="#464646"/>
<path d="M0.833496 26.9313H11.2369V14.5059H2.2986L0.833496 26.9313Z" fill="#464646"/>
<path d="M16.6462 9.93823H20.854V12.5137H16.6462V9.93823Z" fill="#464646"/>
<path d="M0 34H11.2368V28.9235H0.598519L0 34Z" fill="#464646"/>
<path d="M13.5002 21.5745H23.9999V26.9313H13.5002V21.5745Z" fill="#464646"/>
<path d="M13.7712 7.97073H3.06888L2.5332 12.5137H14.3028L13.7712 7.97073Z" fill="#464646"/>
<path d="M13.5002 14.5059H23.9999V19.5824H13.5002V14.5059Z" fill="#464646"/>
<path d="M13.5002 28.9235H23.9999V34H13.5002V28.9235Z" fill="#464646"/>
</svg>
