<svg width="37" height="32" viewBox="0 0 37 32" fill="none" xmlns="http://www.w3.org/2000/svg">
<path d="M23.2932 19.4717C23.2932 17.8926 23.7686 16.375 24.6679 15.083C25.4025 14.0279 26.3752 13.1829 27.5093 12.6086V7.76465H29.9164L29.9164 2.75589L28.3189 1.04241L25.8993 2.8745L23.3558 0.948486L20.8123 2.8745L18.2689 0.948486L15.7257 2.87457L13.1827 0.948558L10.6399 2.87457L8.22071 1.04255L6.62378 2.75581V14.2722C7.08974 14.0577 7.60745 13.9371 8.15313 13.9371H11.4392V17.2232C11.4392 18.4194 10.8638 19.4835 9.97552 20.154C11.9531 21.5478 13.2475 23.8489 13.2475 26.4468C13.2475 28.6273 12.3357 30.5986 10.8735 32H23.2932V19.4717Z" fill="#464646"/>
<path d="M6.62378 17.6075V18.7526H7.76881C8.6121 18.7526 9.29816 18.0665 9.29816 17.2232V16.0782H8.15313C7.30984 16.0782 6.62378 16.7642 6.62378 17.6075V17.6075Z" fill="#464646"/>
<path d="M25.4341 22.9049H36.5404V26.3819H25.4341V22.9049Z" fill="#464646"/>
<path d="M33.0057 14.2985L32.3246 14.0325V9.9057H29.6503V14.0325L28.9692 14.2985C26.8219 15.1371 25.4343 17.1677 25.4343 19.4717V20.7639H36.5406V19.4717C36.5406 17.1677 35.1531 15.1371 33.0057 14.2985V14.2985Z" fill="#464646"/>
<path d="M25.4341 28.5229H36.5404V31.9999H25.4341V28.5229Z" fill="#464646"/>
<path d="M5.55316 31.9999C8.62008 31.9999 11.1063 29.5137 11.1063 26.4468C11.1063 23.3798 8.62008 20.8936 5.55316 20.8936C2.48623 20.8936 0 23.3798 0 26.4468C0 29.5137 2.48623 31.9999 5.55316 31.9999Z" fill="#464646"/>
</svg>
