<svg width="28" height="28" viewBox="0 0 28 28" fill="none" xmlns="http://www.w3.org/2000/svg">
<g clip-path="url(#clip0_1161_3666)">
<path d="M24.9375 14.4375L24.9375 4.375L27.125 4.375L27.125 14.4375L24.9375 14.4375Z" fill="#005A95"/>
<path d="M18.375 15.3125L24.9375 12.6875L24.9375 8.3125L18.375 8.3125L18.375 15.3125Z" fill="#FE99A0"/>
<path d="M0.875 23.625L0.874999 5.25L3.0625 5.25L3.0625 23.625L0.875 23.625Z" fill="#0F90D9"/>
<path d="M3.0625 20.5625L3.0625 8.3125L18.375 8.3125L18.375 20.5625L3.0625 20.5625Z" fill="#FF9800"/>
<path d="M18.375 16.625L18.375 20.5625L14.4375 20.5625C14.4376 19.5182 14.8525 18.5168 15.5909 17.7784C16.3293 17.04 17.3307 16.6251 18.375 16.625Z" fill="#F7DC4D"/>
<path d="M14.4375 8.3125L18.375 8.3125L18.375 12.25C17.3307 12.2499 16.3293 11.835 15.5909 11.0966C14.8525 10.3582 14.4376 9.35676 14.4375 8.3125Z" fill="#F7DC4D"/>
<path d="M3.0625 10.5C4.10679 10.5 5.10831 10.9148 5.84673 11.6533C6.58516 12.3917 7 13.3932 7 14.4375C7 15.4818 6.58516 16.4833 5.84673 17.2217C5.10831 17.9602 4.10679 18.375 3.0625 18.375L3.0625 10.5Z" fill="#F7DC4D"/>
<path d="M16.3718 3.61867L24.9375 5.25L24.9375 9.1875L24.5 9.625C24.0978 10.0272 23.6204 10.3462 23.0949 10.5639C22.5695 10.7816 22.0063 10.8936 21.4375 10.8936C20.8687 10.8936 20.3055 10.7816 19.7801 10.5639C19.2546 10.3462 18.7772 10.0272 18.375 9.625L15.418 12.5814C15.2458 12.7538 15.0413 12.8906 14.8162 12.9838C14.5911 13.0771 14.3498 13.1251 14.1061 13.125L14.07 13.125C13.831 13.125 13.5943 13.0779 13.3735 12.9865C13.1527 12.895 12.9521 12.7609 12.7831 12.5919C12.6141 12.4229 12.48 12.2223 12.3885 12.0015C12.2971 11.7807 12.25 11.544 12.25 11.305L12.25 11.2689C12.2501 10.7767 12.4456 10.3046 12.7936 9.95641L14.4375 8.3125L6.5625 8.3125C6.56248 7.80288 6.72283 7.30618 7.02081 6.89276C7.3188 6.47934 7.73933 6.17017 8.22281 6.00906L15.1495 3.70015C15.5433 3.56898 15.9641 3.54092 16.3718 3.61867Z" fill="#FFC7CC"/>
<path d="M13.125 9.625L15.75 7L13.125 9.625Z" fill="#FFC7CC"/>
<path d="M15.75 6.38148C15.8319 6.46355 15.8779 6.57477 15.8779 6.69074C15.8779 6.80671 15.8319 6.91794 15.75 7L14.4375 8.3125L13.2004 8.3125L15.1315 6.38148C15.172 6.34079 15.2202 6.3085 15.2733 6.28648C15.3264 6.26445 15.3833 6.25311 15.4407 6.25311C15.4982 6.25311 15.5551 6.26445 15.6081 6.28648C15.6612 6.3085 15.7094 6.34079 15.75 6.38148Z" fill="#FE99A0"/>
</g>
<defs>
<clipPath id="clip0_1161_3666">
<rect width="28" height="28" fill="white" transform="translate(0 28) rotate(-90)"/>
</clipPath>
</defs>
</svg>
