<svg width="29" height="25" viewBox="0 0 29 25" fill="none" xmlns="http://www.w3.org/2000/svg">
<g clip-path="url(#clip0_1161_3690)">
<path d="M26.0581 7.81265H25.2769V5.4689C25.2769 5.03609 24.9269 4.68765 24.4956 4.68765H5.74561C4.45342 4.68765 3.40186 5.73922 3.40186 7.0314V21.0939C3.40186 22.3861 4.45342 23.4377 5.74561 23.4377H26.0581C26.4894 23.4377 26.8394 23.0877 26.8394 22.6564V8.5939C26.8394 8.16109 26.4894 7.81265 26.0581 7.81265Z" fill="#31AAEF"/>
<path d="M5.74561 6.25015H23.7144V7.81265H5.74561C5.31436 7.81265 4.96436 7.46265 4.96436 7.0314C4.96436 6.60015 5.31436 6.25015 5.74561 6.25015Z" fill="#FAFAFA"/>
<path d="M27.6206 17.1877H22.9331C21.6394 17.1877 20.5894 16.1377 20.5894 14.8439C20.5894 13.5486 21.6394 12.5002 22.9331 12.5002H27.6206C28.0519 12.5002 28.4019 12.8502 28.4019 13.2814V16.4064C28.4019 16.8377 28.0519 17.1877 27.6206 17.1877Z" fill="#005A95"/>
<path d="M23.416 7.81265L20.5066 1.9939C20.3128 1.60796 19.8441 1.45327 19.4582 1.6439L7.12378 7.81265H23.416Z" fill="#FF9800"/>
<path d="M4.96436 7.81265H20.2909L17.3815 1.9939C17.1878 1.60797 16.719 1.45328 16.3331 1.64547L4.96436 7.32984V7.81265Z" fill="#F7DC4D"/>
</g>
<path d="M4.60659 22.9683C7.1506 22.9683 9.21293 20.9059 9.21293 18.3619C9.21293 15.8179 7.1506 13.7556 4.60659 13.7556C2.06257 13.7556 0.000244141 15.8179 0.000244141 18.3619C0.000244141 20.9059 2.06257 22.9683 4.60659 22.9683Z" fill="#FF9800"/>
<path d="M0 18.3619C0 20.9061 2.06239 22.9685 4.60654 22.9685V13.7554C2.06239 13.7554 0 15.8178 0 18.3619Z" fill="#F7DC4D"/>
<path d="M6.43441 17.5653H5.40312V16.534C5.40312 16.094 5.04644 15.7373 4.60644 15.7373C4.16648 15.7373 3.80976 16.094 3.80976 16.534V17.5653H2.77837C2.33842 17.5653 1.98169 17.9219 1.98169 18.3619C1.98169 18.8019 2.33837 19.1586 2.77837 19.1586H3.80976V20.1899C3.80976 20.6299 4.16644 20.9866 4.60644 20.9866C5.04639 20.9866 5.40312 20.6299 5.40312 20.1899V19.1586H6.43441C6.87436 19.1586 7.23109 18.8019 7.23109 18.3619C7.23109 17.922 6.87446 17.5653 6.43441 17.5653Z" fill="#003C61"/>
<defs>
<clipPath id="clip0_1161_3690">
<rect width="25" height="25" fill="white" transform="translate(3.40186)"/>
</clipPath>
</defs>
</svg>
