<svg width="34" height="34" viewBox="0 0 34 34" fill="none" xmlns="http://www.w3.org/2000/svg">
<g filter="url(#filter0_d_1262_6778)">
<path d="M14.9842 12.9339C9.6717 12.9339 5.28477 16.8966 4.61796 22.0274C4.57327 22.3715 4.679 22.718 4.90812 22.9785C5.13725 23.239 5.46748 23.3878 5.81441 23.3878H24.154C24.5006 23.3878 24.8303 23.2384 25.0593 22.9781C25.2882 22.7178 25.3951 22.3711 25.3504 22.0274C24.6837 16.8966 20.2967 12.9339 14.9842 12.9339Z" fill="#005A95"/>
<path d="M14.9842 12.9339C9.67165 12.9339 5.28477 16.8966 4.61796 22.0274C4.57327 22.3715 4.679 22.718 4.90812 22.9785C5.13725 23.239 5.46748 23.3878 5.81441 23.3878H14.9842V12.9339Z" fill="#31AAEF"/>
<path d="M19.9249 14.1749C18.4534 13.3841 16.7717 12.9339 14.9842 12.9339C13.1967 12.9339 11.5149 13.3841 10.0435 14.1749C11.2042 15.8999 12.9855 17.0052 14.9842 17.0052C16.9829 17.0052 18.7641 15.8998 19.9249 14.1749Z" fill="#003C61"/>
<path d="M14.984 15.1087C18.4818 15.1087 21.3173 11.7265 21.3173 7.55436C21.3173 3.3822 18.4818 0 14.984 0C11.4862 0 8.65063 3.3822 8.65063 7.55436C8.65063 11.7265 11.4862 15.1087 14.984 15.1087Z" fill="#FFDBAC"/>
<path d="M14.9841 0C11.4862 0 8.65063 3.38218 8.65063 7.55431C8.65063 11.7264 11.4862 15.1086 14.984 15.1086V0H14.9841Z" fill="#FFEED9"/>
<path d="M24.4848 25.9998C27.1951 25.9998 29.3923 23.8027 29.3923 21.0924C29.3923 18.3821 27.1951 16.1849 24.4848 16.1849C21.7745 16.1849 19.5774 18.3821 19.5774 21.0924C19.5774 23.8027 21.7745 25.9998 24.4848 25.9998Z" fill="#FF9800"/>
<path d="M19.5771 21.0923C19.5771 23.8028 21.7743 26 24.4848 26V16.1847C21.7743 16.1847 19.5771 18.3819 19.5771 21.0923Z" fill="#F7DC4D"/>
<path d="M26.4323 20.2436H25.3335V19.1449C25.3335 18.6762 24.9536 18.2961 24.4848 18.2961C24.0161 18.2961 23.636 18.6761 23.636 19.1449V20.2436H22.5372C22.0685 20.2436 21.6885 20.6236 21.6885 21.0924C21.6885 21.5611 22.0685 21.9411 22.5372 21.9411H23.636V23.0398C23.636 23.5085 24.016 23.8886 24.4848 23.8886C24.9535 23.8886 25.3335 23.5086 25.3335 23.0398V21.9411H26.4323C26.901 21.9411 27.281 21.5611 27.281 21.0924C27.281 20.6236 26.9011 20.2436 26.4323 20.2436Z" fill="#003C61"/>
<path d="M24.4848 18.2961C24.0161 18.2961 23.636 18.6761 23.636 19.1449V20.2436H22.5372C22.0685 20.2436 21.6885 20.6236 21.6885 21.0924C21.6885 21.5611 22.0685 21.9411 22.5372 21.9411H23.636V23.0398C23.636 23.5085 24.016 23.8886 24.4848 23.8886V18.2961Z" fill="#005A95"/>
</g>
<defs>
<filter id="filter0_d_1262_6778" x="0" y="0" width="34" height="34" filterUnits="userSpaceOnUse" color-interpolation-filters="sRGB">
<feFlood flood-opacity="0" result="BackgroundImageFix"/>
<feColorMatrix in="SourceAlpha" type="matrix" values="0 0 0 0 0 0 0 0 0 0 0 0 0 0 0 0 0 0 127 0" result="hardAlpha"/>
<feOffset dy="4"/>
<feGaussianBlur stdDeviation="2"/>
<feComposite in2="hardAlpha" operator="out"/>
<feColorMatrix type="matrix" values="0 0 0 0 0 0 0 0 0 0 0 0 0 0 0 0 0 0 0.25 0"/>
<feBlend mode="normal" in2="BackgroundImageFix" result="effect1_dropShadow_1262_6778"/>
<feBlend mode="normal" in="SourceGraphic" in2="effect1_dropShadow_1262_6778" result="shape"/>
</filter>
</defs>
</svg>
