<svg width="29" height="20" viewBox="0 0 29 20" fill="none" xmlns="http://www.w3.org/2000/svg">
<path fill-rule="evenodd" clip-rule="evenodd" d="M9.29359 2.90132C9.42228 2.9602 9.3457 2.88292 9.41838 2.99822C9.05465 3.18507 8.73311 3.58657 8.58954 4.09273C8.42682 4.66636 8.575 5.26166 8.66115 5.82425L9.75339 12.6734C9.91114 13.7054 9.96042 15.1969 10.6138 15.7227C10.461 14.2913 9.92852 11.4215 9.68249 9.8102C9.46588 8.39269 8.65512 5.59569 11.1413 5.27351C10.897 6.04258 10.8392 6.19712 10.98 7.06676L12.3902 15.9104C12.5299 16.7833 12.5572 17.585 13.1301 18.1893C13.2712 18.3382 13.5168 18.4719 13.6367 18.6272L20.7403 17.1239C21.1905 17.0384 27.4391 15.7587 27.8025 15.596C28.0403 15.4892 28.2545 15.3204 28.4321 15.1454C29.1663 14.4233 29.0397 13.3006 28.8674 12.3255C28.6327 10.9971 27.6369 3.88176 27.3129 3.26929C27.2693 3.1867 27.1597 3.01948 27.097 2.92994C27.0009 2.79215 26.9229 2.72633 26.7939 2.62575C26.3217 2.25859 25.8622 2.0836 25.104 2.28762C25.0891 1.50998 24.8437 0.767899 24.3127 0.324697C23.6771 -0.205592 22.9822 0.0389053 22.2062 0.18773C20.7612 0.464935 19.3177 0.82841 17.8996 1.10316L9.29359 2.90091V2.90132Z" fill="#6BF4C1"/>
<path fill-rule="evenodd" clip-rule="evenodd" d="M13.637 18.6272C13.5172 18.4718 13.2719 18.3386 13.1304 18.1893C12.5575 17.585 12.5306 16.7833 12.3906 15.9103L10.9803 7.06675C10.8392 6.19752 10.8974 6.04297 11.1416 5.2735C8.65547 5.59568 9.46659 8.39268 9.68284 9.81019C9.92886 11.4215 10.4613 14.2913 10.6141 15.7227C9.96077 15.1973 9.91149 13.7058 9.75374 12.6734L8.6615 5.82423C8.57535 5.26123 8.42717 4.66635 8.58989 4.09272C8.73346 3.58655 9.055 3.18464 9.41873 2.99821C9.34605 2.88291 9.42263 2.96018 9.29394 2.90131C8.50197 3.12209 7.66675 3.07671 7.17043 3.82614C6.58266 4.71418 6.81451 5.41987 6.9946 6.57408L7.91029 12.3149C8.17334 13.8043 8.17192 15.5105 8.94404 16.2203C9.17482 16.4325 9.61654 16.6823 10.0288 16.6696C10.8928 16.6426 10.6163 16.1761 10.8385 17.1729C11.0208 17.9898 11.6255 18.6174 12.4019 18.7711C12.8947 18.8688 13.1783 18.6791 13.6374 18.6272H13.637Z" fill="#05E39C"/>
<path fill-rule="evenodd" clip-rule="evenodd" d="M18.9027 6.65832C16.9384 6.96987 15.6742 8.8915 15.9025 11.0086C16.1198 13.023 17.6786 14.7259 19.7096 14.4307C21.4272 14.1809 22.9172 12.332 22.6414 10.0154C22.412 8.08891 20.8596 6.34799 18.9027 6.65832Z" fill="#FF9800"/>
<path fill-rule="evenodd" clip-rule="evenodd" d="M0.680176 15.9476C0.680176 16.8896 1.84757 16.3115 2.33502 16.1569L4.72618 15.4508C5.11614 15.3388 5.66669 15.2857 5.66669 14.7709C5.66669 14.5644 5.40187 14.248 5.27 14.248L2.85721 14.9291C2.43925 15.0661 2.0546 15.1753 1.64338 15.2938C1.28958 15.3956 0.680176 15.4549 0.680176 15.9476Z" fill="#005A95"/>
<path fill-rule="evenodd" clip-rule="evenodd" d="M3.40026 18.4314C3.40026 19.4205 4.03128 19.0337 4.76015 18.8235C5.10828 18.7233 6.61139 18.4024 6.78936 18.1559C7.02227 17.8333 6.856 17.3206 6.46002 17.3206C6.04028 17.3206 4.62898 17.8235 4.01746 17.9674C3.77816 18.0238 3.3999 18.1354 3.3999 18.4314H3.40026Z" fill="#31AAEF"/>
<path fill-rule="evenodd" clip-rule="evenodd" d="M0 13.0721C0 14.0877 1.01212 13.5484 2.11961 13.2291C2.74921 13.0475 3.51353 12.9989 3.51353 12.4187C3.51353 12.1758 3.31501 11.8075 2.78856 11.971C2.47518 12.0683 2.12953 12.1476 1.77963 12.2486L0.287152 12.6845C0.164492 12.7409 0 12.8774 0 13.0721H0Z" fill="#31AAEF"/>
<path fill-rule="evenodd" clip-rule="evenodd" d="M0.283203 19.4768C0.283203 20.3187 1.18649 19.9155 1.54171 19.8174C2.01356 19.687 2.15323 19.6346 2.15323 19.2156C2.15323 18.4853 1.44209 18.7822 1.25137 18.8288C0.896503 18.9151 0.283203 18.9895 0.283203 19.4772V19.4768Z" fill="#005A95"/>
<path fill-rule="evenodd" clip-rule="evenodd" d="M4.70337 11.8958C4.70337 12.3983 5.03129 12.4502 5.38863 12.3627C5.92678 12.231 6.11998 12.209 6.11998 11.6341C6.11998 11.502 5.96542 11.242 5.72329 11.242C5.35212 11.242 4.70337 11.352 4.70337 11.8954V11.8958Z" fill="#005A95"/>
</svg>
