<svg width="26" height="26" viewBox="0 0 26 26" fill="none" xmlns="http://www.w3.org/2000/svg">
<g clip-path="url(#clip0_1267_8078)">
<path d="M24.2712 13.3368C24.1666 13.1227 24.1666 12.8772 24.2712 12.6633L25.241 10.6795C25.7809 9.57496 25.3531 8.25846 24.2671 7.68225L22.3166 6.64733C22.1062 6.53572 21.9619 6.33706 21.9207 6.10251L21.5392 3.92761C21.3268 2.71668 20.2067 1.90297 18.9896 2.07517L16.8034 2.38442C16.5674 2.41774 16.334 2.34187 16.1628 2.17627L14.5759 0.641063C13.6923 -0.213784 12.308 -0.213835 11.4244 0.641063L9.83737 2.17643C9.66614 2.34207 9.4328 2.41779 9.19687 2.38458L7.0106 2.07532C5.79312 1.90302 4.6734 2.71684 4.46099 3.92776L4.07952 6.10256C4.03834 6.33716 3.89407 6.53577 3.68368 6.64744L1.73319 7.68235C0.647185 8.25851 0.219406 9.57511 0.75931 10.6796L1.72897 12.6634C1.83358 12.8774 1.83358 13.1229 1.72897 13.3369L0.759259 15.3206C0.219356 16.4251 0.647134 17.7416 1.73314 18.3178L3.68363 19.3527C3.89407 19.4643 4.03834 19.663 4.07952 19.8976L4.46099 22.0725C4.65436 23.1748 5.5996 23.9479 6.68596 23.9478C6.79295 23.9478 6.90152 23.9403 7.01065 23.9248L9.19692 23.6156C9.4327 23.5821 9.66619 23.6581 9.83742 23.8237L11.4244 25.359C11.8663 25.7864 12.4331 26.0001 13.0001 26.0001C13.567 26 14.1342 25.7863 14.5758 25.359L16.1628 23.8237C16.3341 23.6581 16.5675 23.5825 16.8034 23.6156L18.9896 23.9248C20.2072 24.0971 21.3268 23.2833 21.5392 22.0724L21.9207 19.8976C21.9619 19.663 22.1062 19.4644 22.3166 19.3527L24.2671 18.3178C25.3531 17.7417 25.7809 16.4251 25.241 15.3205L24.2712 13.3368ZM10.0009 6.25195C11.5168 6.25195 12.7502 7.48527 12.7502 9.00119C12.7502 10.5171 11.5168 11.7504 10.0009 11.7504C8.48502 11.7504 7.25171 10.5171 7.25171 9.00119C7.25171 7.48527 8.48502 6.25195 10.0009 6.25195ZM8.58191 18.4785C8.43551 18.6249 8.24361 18.6981 8.05176 18.6981C7.85991 18.6981 7.66796 18.6249 7.52161 18.4785C7.2288 18.1857 7.2288 17.7109 7.52161 17.4181L17.4183 7.52148C17.711 7.22867 18.1858 7.22867 18.4786 7.52148C18.7714 7.81428 18.7714 8.28903 18.4786 8.58183L8.58191 18.4785ZM15.9992 19.7481C14.4833 19.7481 13.25 18.5148 13.25 16.9989C13.25 15.483 14.4833 14.2497 15.9992 14.2497C17.5151 14.2497 18.7484 15.483 18.7484 16.9989C18.7484 18.5148 17.5151 19.7481 15.9992 19.7481Z" fill="#2196F3"/>
<path d="M15.9992 15.7493C15.3101 15.7493 14.7495 16.3098 14.7495 16.9989C14.7495 17.6879 15.3101 18.2485 15.9992 18.2485C16.6882 18.2485 17.2488 17.6879 17.2488 16.9989C17.2488 16.3098 16.6882 15.7493 15.9992 15.7493Z" fill="#2196F3"/>
<path d="M10.0008 7.75153C9.31179 7.75153 8.75122 8.3121 8.75122 9.00114C8.75122 9.69019 9.31179 10.2508 10.0008 10.2508C10.6899 10.2508 11.2505 9.69024 11.2505 9.00114C11.2505 8.31215 10.6899 7.75153 10.0008 7.75153Z" fill="#2196F3"/>
</g>
<defs>
<clipPath id="clip0_1267_8078">
<rect width="26" height="26" fill="white"/>
</clipPath>
</defs>
</svg>
