<svg width="25" height="25" viewBox="0 0 25 25" fill="none" xmlns="http://www.w3.org/2000/svg">
<path d="M22.6562 16.4062H24.2188C24.65 16.4062 25 16.7563 25 17.1875V21.875C25 22.3062 24.65 22.6562 24.2188 22.6562H19.5312C19.1 22.6562 18.75 22.3062 18.75 21.875V17.1875C18.75 16.7563 19.1 16.4062 19.5312 16.4062H21.0938V13.2812H13.2812V16.4062H14.8438C15.275 16.4062 15.625 16.7563 15.625 17.1875V21.875C15.625 22.3062 15.275 22.6562 14.8438 22.6562H10.1562C9.725 22.6562 9.375 22.3062 9.375 21.875V17.1875C9.375 16.7563 9.725 16.4062 10.1562 16.4062H11.7188V13.2812H3.90625V16.4062H5.46875C5.9 16.4062 6.25 16.7563 6.25 17.1875V21.875C6.25 22.3062 5.9 22.6562 5.46875 22.6562H0.78125C0.35 22.6562 0 22.3062 0 21.875V17.1875C0 16.7563 0.35 16.4062 0.78125 16.4062H2.34375V12.5C2.34375 12.0687 2.69375 11.7188 3.125 11.7188H11.7188V8.59375H13.2812V11.7188H21.875C22.3062 11.7188 22.6562 12.0687 22.6562 12.5V16.4062Z" fill="#2196F3"/>
<g clip-path="url(#clip0_1346_527)">
<path d="M12.4217 4.81703C13.1496 4.81703 13.78 4.57968 14.295 4.11139C14.8101 3.64317 15.0711 3.07029 15.0711 2.40844C15.0711 1.74682 14.8101 1.17385 14.2949 0.705487C13.7798 0.23735 13.1495 0 12.4217 0C11.6936 0 11.0635 0.23735 10.5484 0.705564C10.0334 1.17378 9.77222 1.74674 9.77222 2.40844C9.77222 3.07029 10.0334 3.64325 10.5485 4.11146C11.0636 4.5796 11.6939 4.81703 12.4217 4.81703Z" fill="#2196F3"/>
<path d="M17.0575 7.68948C17.0426 7.49463 17.0126 7.28207 16.9683 7.05762C16.9237 6.83148 16.8662 6.61771 16.7974 6.42232C16.7263 6.22037 16.6296 6.02094 16.5101 5.82982C16.3861 5.63146 16.2404 5.45873 16.0769 5.3166C15.9059 5.1679 15.6966 5.04835 15.4546 4.96114C15.2134 4.8744 14.9461 4.83045 14.6602 4.83045C14.5479 4.83045 14.4393 4.87234 14.2296 4.99647C14.1005 5.07299 13.9495 5.16149 13.781 5.25937C13.6369 5.34284 13.4417 5.42104 13.2006 5.49184C12.9654 5.56104 12.7265 5.59614 12.4908 5.59614C12.255 5.59614 12.0163 5.56104 11.7808 5.49184C11.5399 5.42112 11.3447 5.34292 11.2008 5.25945C11.0339 5.16248 10.8828 5.07398 10.7518 4.99639C10.5423 4.87226 10.4336 4.83038 10.3214 4.83038C10.0353 4.83038 9.76813 4.8744 9.52702 4.96122C9.28515 5.04827 9.07576 5.16782 8.90464 5.31667C8.74124 5.45888 8.59547 5.63154 8.4716 5.82982C8.35217 6.02094 8.25549 6.22029 8.18433 6.4224C8.11559 6.61778 8.05811 6.83148 8.01346 7.05762C7.96923 7.28177 7.93919 7.4944 7.92433 7.68971C7.90973 7.88105 7.90234 8.07965 7.90234 8.28022C7.90234 8.80222 8.08488 9.22481 8.44482 9.53647C8.80032 9.84401 9.27071 10 9.84274 10H15.1393C15.7113 10 16.1815 9.84409 16.5371 9.53647C16.8972 9.22504 17.0797 8.80238 17.0797 8.28015C17.0796 8.07865 17.0721 7.87991 17.0575 7.68948Z" fill="#2196F3"/>
</g>
<defs>
<clipPath id="clip0_1346_527">
<rect width="11" height="10" fill="white" transform="translate(7)"/>
</clipPath>
</defs>
</svg>
