<svg width="26" height="26" viewBox="0 0 26 26" fill="none" xmlns="http://www.w3.org/2000/svg">
<g clip-path="url(#clip0_1151_444)">
<path d="M23.3404 12.8253C23.2398 12.6195 23.2398 12.3834 23.3404 12.1777L24.273 10.27C24.7922 9.20778 24.3808 7.94177 23.3364 7.38765L21.4607 6.39242C21.2584 6.28508 21.1196 6.09405 21.08 5.86848L20.7132 3.77699C20.5089 2.6125 19.4317 1.82999 18.2614 1.99558L16.1589 2.29298C15.932 2.32501 15.7076 2.25206 15.543 2.09281L14.0169 0.616469C13.1671 -0.205597 11.8359 -0.205646 10.9862 0.616469L9.46005 2.09296C9.29539 2.25225 9.071 2.32506 8.84411 2.29313L6.74168 1.99573C5.57089 1.83004 4.49411 2.61264 4.28984 3.77713L3.923 5.86853C3.88339 6.09415 3.74466 6.28513 3.54234 6.39252L1.66664 7.38775C0.622279 7.94182 0.210904 9.20793 0.730104 10.2701L1.66258 12.1777C1.76318 12.3836 1.76318 12.6196 1.66258 12.8254L0.730055 14.7331C0.210855 15.7953 0.62223 17.0613 1.66659 17.6154L3.54229 18.6106C3.74466 18.7179 3.88339 18.909 3.923 19.1345L4.28984 21.226C4.47579 22.2861 5.38478 23.0296 6.42948 23.0295C6.53238 23.0295 6.63678 23.0222 6.74173 23.0074L8.84416 22.71C9.0709 22.6778 9.29543 22.7509 9.4601 22.9102L10.9862 24.3865C11.4112 24.7976 11.9562 25.0031 12.5015 25.003C13.0466 25.003 13.5921 24.7975 14.0168 24.3865L15.543 22.9102C15.7076 22.7509 15.9321 22.6782 16.1589 22.71L18.2614 23.0074C19.4323 23.173 20.5089 22.3905 20.7132 21.226L21.0801 19.1346C21.1197 18.909 21.2584 18.718 21.4607 18.6106L23.3364 17.6154C24.3808 17.0613 24.7922 15.7952 24.273 14.733L23.3404 12.8253ZM9.61735 6.0122C11.0751 6.0122 12.2612 7.19823 12.2612 8.65601C12.2612 10.1138 11.0751 11.2998 9.61735 11.2998C8.15956 11.2998 6.97354 10.1138 6.97354 8.65601C6.97354 7.19823 8.15956 6.0122 9.61735 6.0122ZM8.25274 17.7699C8.11195 17.9107 7.92741 17.9811 7.74292 17.9811C7.55842 17.9811 7.37383 17.9107 7.23309 17.7699C6.95152 17.4883 6.95152 17.0318 7.23309 16.7502L16.7502 7.23304C17.0318 6.95147 17.4884 6.95147 17.7699 7.23304C18.0515 7.51462 18.0515 7.97117 17.7699 8.25274L8.25274 17.7699ZM15.3856 18.9908C13.9278 18.9908 12.7418 17.8048 12.7418 16.347C12.7418 14.8892 13.9278 13.7032 15.3856 13.7032C16.8434 13.7032 18.0294 14.8892 18.0294 16.347C18.0294 17.8048 16.8434 18.9908 15.3856 18.9908Z" fill="#2196F3"/>
<path d="M15.3856 15.1453C14.723 15.1453 14.1838 15.6844 14.1838 16.347C14.1838 17.0096 14.7229 17.5487 15.3856 17.5487C16.0482 17.5487 16.5873 17.0096 16.5873 16.347C16.5873 15.6844 16.0482 15.1453 15.3856 15.1453Z" fill="#2196F3"/>
<path d="M9.61735 7.45427C8.95472 7.45427 8.41565 7.99334 8.41565 8.65597C8.41565 9.31859 8.95472 9.85772 9.61735 9.85772C10.28 9.85772 10.8191 9.31864 10.8191 8.65597C10.819 7.99339 10.28 7.45427 9.61735 7.45427Z" fill="#2196F3"/>
</g>
<defs>
<clipPath id="clip0_1151_444">
<rect width="25.003" height="25.003" fill="white"/>
</clipPath>
</defs>
</svg>
