<svg width="21" height="19" viewBox="0 0 21 19" fill="none" xmlns="http://www.w3.org/2000/svg">
<path d="M19.5682 15.5458H16.2273C14.122 15.5458 12.4091 13.9961 12.4091 12.0912C12.4091 10.1864 14.122 8.6367 16.2273 8.6367H19.5682C19.832 8.6367 20.0455 8.44356 20.0455 8.20487V6.90941C20.0455 6.00388 19.2692 5.26745 18.2883 5.19604L15.5473 0.864352C15.2933 0.463731 14.8831 0.177394 14.3923 0.0584954C13.9038 -0.0595937 13.393 0.00242636 12.9558 0.232654L3.55941 5.18212H1.9091C0.856226 5.18212 0 5.95676 0 6.90941V17.2731C0 18.2257 0.856181 19.0004 1.9091 19.0004H18.1364C19.1892 19.0004 20.0455 18.2257 20.0455 17.2731V15.9776C20.0455 15.7389 19.832 15.5458 19.5682 15.5458ZM16.1392 3.53866L17.1792 5.18212H13.0192L16.1392 3.53866ZM5.45656 5.18212L13.4363 0.97904C13.6521 0.864757 13.9043 0.834394 14.1453 0.892609C14.389 0.951633 14.5923 1.09417 14.7186 1.29363L14.7196 1.29521L7.34079 5.18212H5.45656Z" fill="#2196F3"/>
<path d="M19.5682 9.50032H16.2273C14.6482 9.50032 13.3636 10.6625 13.3636 12.0912C13.3636 13.52 14.6482 14.6822 16.2273 14.6822H19.5682C20.3578 14.6822 21 14.1011 21 13.3867V10.7958C21 10.0814 20.3578 9.50032 19.5682 9.50032ZM16.2273 12.9549C15.7011 12.9549 15.2728 12.5673 15.2728 12.0912C15.2728 11.6152 15.7011 11.2276 16.2273 11.2276C16.7535 11.2276 17.1818 11.6152 17.1818 12.0912C17.1819 12.5673 16.7535 12.9549 16.2273 12.9549Z" fill="#2196F3"/>
</svg>
