<svg width="339" height="333" viewBox="0 0 339 333" fill="none" xmlns="http://www.w3.org/2000/svg">
<ellipse cx="169.038" cy="166.5" rx="169.038" ry="166.5" fill="#F7E82E"/>
<path fill-rule="evenodd" clip-rule="evenodd" d="M69.9261 117.294C79.4912 112.015 92.8869 107.854 103.615 107.854C124.102 107.854 128.844 117.294 138.911 117.294C148.978 117.294 159.318 107.854 177.935 107.854C194.876 107.854 203.826 117.294 218.874 117.294C233.957 117.294 230.822 107.854 252.05 107.854C273.175 107.854 282.843 117.294 282.843 117.294V141.36C282.843 141.36 271.568 131.316 253.84 131.077C236.249 130.872 236.716 141.36 218.92 141.36C201.112 141.36 199.687 131.077 178.779 131.077C157.881 131.077 154.723 141.36 138.58 141.36C122.392 141.36 119.359 130.655 102.498 130.872C85.6361 131.077 69.9261 141.36 69.9261 141.36V117.294Z" fill="#28A8E0"/>
<path fill-rule="evenodd" clip-rule="evenodd" d="M69.9261 173.419C79.4912 168.129 92.8869 163.99 103.615 163.99C124.102 163.99 128.844 173.419 138.911 173.419C148.978 173.419 159.318 163.99 177.935 163.99C194.876 163.99 203.826 173.419 218.874 173.419C233.957 173.419 230.822 163.99 252.05 163.99C273.175 163.99 282.843 173.419 282.843 173.419V197.497C282.843 197.497 271.568 187.384 253.84 187.202C236.249 187.031 236.716 197.497 218.92 197.497C201.112 197.497 199.687 187.202 178.779 187.202C157.881 187.202 154.723 197.497 138.58 197.497C122.392 197.497 119.359 186.814 102.498 187.031C85.6361 187.202 69.9261 197.497 69.9261 197.497V173.419V173.419Z" fill="#28A8E0"/>
<path fill-rule="evenodd" clip-rule="evenodd" d="M69.9261 229.498C79.4912 224.185 92.8869 220.058 103.615 220.058C124.102 220.058 128.844 229.498 138.911 229.498C148.978 229.498 159.318 220.058 177.935 220.058C194.876 220.058 203.826 229.498 218.874 229.498C233.957 229.498 230.822 220.058 252.05 220.058C273.175 220.058 282.843 229.498 282.843 229.498V253.644C282.843 253.644 271.568 243.521 253.84 243.304C236.249 243.122 236.716 253.644 218.92 253.644C201.112 253.644 199.687 243.304 178.779 243.304C157.881 243.304 154.723 253.644 138.58 253.644C122.392 253.644 119.359 242.928 102.498 243.122C85.6361 243.304 69.9261 253.644 69.9261 253.644V229.498V229.498Z" fill="#28A8E0"/>
<path fill-rule="evenodd" clip-rule="evenodd" d="M166.295 307.341L193.303 171.64L97.3445 213.845L153.424 35.6658H199.106L145.865 159.191L240.615 120.862L166.295 307.341Z" fill="#E62A2B"/>
</svg>
